<svg width="111" height="128" viewBox="0 0 111 128" fill="none" xmlns="http://www.w3.org/2000/svg">
<g clip-path="url(#clip0_201:2)">
<path d="M82.516 70.7626H99.7411V84.1423C98.3943 84.2217 97.2496 84.3408 96.1452 84.3408C87.2297 84.3408 78.3007 84.182 69.3851 84.2217C67.136 84.2217 66.1933 83.7585 66.2337 81.2705C66.5928 62.5222 66.8532 43.7695 67.0148 25.0124C67.0148 22.6303 67.8363 21.9289 70.1662 22.0215C74.2065 22.1671 78.2468 22.0215 82.516 22.0215V70.7626Z" fill="white"/>
<path d="M59.9982 22.048C59.9982 28.665 60.1194 34.5939 59.8905 40.5757C59.8905 41.8991 58.6245 43.1299 57.803 44.3209C52.8603 51.4806 47.8504 58.6137 42.8809 65.7601C42.0055 67.0041 41.184 68.2879 39.8103 70.3391H58.9477C58.9477 74.7726 59.0554 78.6236 58.8534 82.4615C58.8534 83.0835 57.4124 84.1555 56.6582 84.1423C47.3925 84.0364 38.1268 83.7849 28.8611 83.5467C28.301 83.5729 27.7438 83.4542 27.245 83.2026C25.7097 82.263 23.7434 72.88 24.8477 71.292C36.4299 55.0008 48.0524 38.7229 59.9982 22.048Z" fill="white"/>
<path d="M67.5535 103.318V88.8404H82.6237C82.6237 93.3532 82.7046 97.6146 82.5295 101.863C82.5295 102.379 81.1828 103.186 80.3478 103.252C76.092 103.385 71.8362 103.318 67.5535 103.318Z" fill="white"/>
<path d="M111.013 105.118C108.82 108.318 106.263 111.262 103.39 113.892C100.283 116.752 96.8103 119.203 93.0606 121.184C88.9632 123.353 84.6126 125.024 80.1047 126.16C75.0405 127.43 69.8299 128.048 64.6036 128C55.7283 128.081 46.9236 126.444 38.6919 123.182C31.0132 120.161 24.0462 115.625 18.2207 109.855C12.3951 104.085 7.83473 97.2032 4.82084 89.6341C1.54202 81.476 -0.0953371 72.7705 -0.000548051 63.9997C-0.095655 55.2214 1.57011 46.5108 4.90164 38.3653C7.98607 30.807 12.5931 23.9391 18.4459 18.1741C24.2988 12.4091 31.2769 7.86573 38.9612 4.81688C47.0817 1.56121 55.7797 -0.0762585 64.5497 -0.000345038C73.4093 -0.00914668 82.1739 1.7936 90.2862 5.29329C94.0235 6.90945 97.5539 8.95277 100.804 11.381C103.84 13.6297 106.495 16.3365 108.67 19.4008L98.1648 26.9707C96.7031 24.8151 94.97 22.8498 93.0067 21.1213C90.71 19.0824 88.152 17.3472 85.3975 15.96C82.3575 14.4188 79.1558 13.2073 75.849 12.3471C72.2164 11.4264 68.476 10.9814 64.7248 11.0237C57.2887 10.8988 49.9137 12.3618 43.1092 15.3115C36.9639 18.0294 31.4605 21.9727 26.9481 26.8913C22.4766 31.8168 19.0272 37.5531 16.7936 43.778C14.4493 50.2741 13.2691 57.1205 13.3054 64.0129C13.2674 70.9134 14.4805 77.7654 16.8878 84.2478C19.1714 90.47 22.6508 96.2029 27.1367 101.135C31.649 106.053 37.1524 109.996 43.2978 112.714C50.0444 115.652 57.3598 117.115 64.7382 117.002C71.7449 117.03 78.6743 115.562 85.0474 112.701C91.6513 109.709 97.2555 104.936 101.208 98.9376L111.013 105.118Z" fill="white"/>
</g>
<defs>
<clipPath id="clip0_201:2">
<rect width="111" height="128" fill="white"/>
</clipPath>
</defs>
</svg>
